<svg xmlns="http://www.w3.org/2000/svg" shape-rendering="crispEdges" viewBox="0 0 32 32"><rect width="100%" height="100%" fill="#12000b"/><path stroke="#38002b" d="M6 3h20M6 4h1m18 0h1M5 5h2m18 0h2M5 6h1m20 0h1M4 7h2m20 0h2M4 8h1m22 0h1M4 9h1m22 0h1M3 10h2m22 0h2M3 11h1m24 0h1M3 12h1m24 0h1M3 13h1m24 0h1M3 14h1m24 0h1M3 15h1m24 0h1M3 16h1m24 0h1M3 17h2m22 0h2M4 18h2m20 0h2M5 19h2m18 0h2M6 20h2m16 0h2M7 21h3m12 0h3M9 22h3m8 0h3m-12 1h3m4 0h3m-8 1h2m2 0h2m-5 1h4m-3 1h2m-2 1h2m-2 1h2m-2 1h2m-2 1h2m-2 1h2m-2 1h2"/><path stroke="#ffb8e7" d="M7 13h1m-1 1h2m-2 1h2m-1 1h2m-1 1h2m-1 1h3m-1 1h2"/><path stroke="#7a0049" d="M4 15h3m2 0h19M4 16h4m2 0h18M5 17h4m2 0h16M6 18h4m3 0h13M7 19h5m2 0h11M8 20h16m-14 1h12m-10 1h8m-6 1h4m-3 1h2"/></svg>